<svg xmlns="http://www.w3.org/2000/svg" viewBox="0 0 225 225"><defs><style>.cls-1{fill:none;}.cls-2{fill:#228a98;}</style></defs><g id="レイヤー_2" data-name="レイヤー 2"><g id="レイヤー_1-2" data-name="レイヤー 1"><path class="cls-1" d="M97.61,32.48l-15.29.39-7.78,5.68,1.84,1.33L82.6,44l15.64-.39c0-.11,0-.22,0-.33A47.91,47.91,0,0,1,97.61,32.48Z"/><path class="cls-2" d="M145.38,31.23a12.58,12.58,0,0,0-12.49-12.31h-32l-1.11,2.87c-.09.37-.28.65-.37,1,0,.13-.09.27-.14.4l-20.07.41-12,8.88A7.69,7.69,0,0,0,64,38.8,7.9,7.9,0,0,0,67.42,45l12.5,8.33,20.49-.5c.24.75.46,1.27.46,1.35l1.3,3.43,3.7-.47s4-.46,11.38-.65c8.28,103.21,6.88,117-2,167.59H161C148.84,128.09,145.75,66.32,145.38,31.23ZM82.6,44l-6.22-4.1-1.84-1.33,7.78-5.68,15.29-.39a47.91,47.91,0,0,0,.58,10.78c0,.11,0,.22,0,.33Z"/><rect class="cls-1" width="225" height="225"/></g></g></svg>