<svg xmlns="http://www.w3.org/2000/svg" viewBox="0 0 225 225.43"><defs><style>.cls-1{fill:#fff;}.cls-2{fill:none;}</style></defs><g id="レイヤー_2" data-name="レイヤー 2"><g id="レイヤー_1-2" data-name="レイヤー 1"><polygon class="cls-1" points="104.66 58.83 104.13 58.96 103.39 61.01 103.78 61.63 115.86 65.92 116.96 63.23 116.59 63.09 104.66 58.83"/><path class="cls-1" d="M163.06,190.68c-1.92-16.53-3.74-32.16-1.5-56.68,2.93-32.09,10.69-48.33,13.26-53.66a12.56,12.56,0,0,0-7-17.15L156.1,58.77l-2.43-.9-2.57.42-12.28,2-9.93-2.69-8.25-2.28-1.14,2.7-12.67-4.52L105,52.9l-1.92.48-.52.13-3.31.85L99,55l-.11.14a2.19,2.19,0,0,0-1-.77L93.75,53,95,47.85l-2-.72-.69-.25L90,51.75,87.74,51,89,46l-1.91-.7-.69-.25-2.26,4.66L81.73,49l1.18-4.73L81,43.55l-.69-.24L78.2,47.75l-2.49-.84,1.12-4.5L75,41.76l-.69-.24-2,4.23-2.59-.87,1.07-4.28L69,40l-.69-.25-2,4-2.69-.92.83-3.33.18-.71L63,38.19l-.69-.25-1.85,3.82-2.81-.95.78-3.11.18-.71L57,36.4l-.69-.25-1.75,3.61-2.91-1,.73-2.89.17-.71L51,34.61l-.69-.25-1.65,3.4-3-1,.66-2.66.18-.71L45,32.83l-.69-.25-1.55,3.18-3.11-1,.61-2.44.18-.71L39,31l-.69-.25-1.44,3-4.18-1.41-.83-.14a2.6,2.6,0,0,0-2.44,1.71,2.5,2.5,0,0,0-.16.89,2.62,2.62,0,0,0,1.66,2.42l1.41.54-.86,3.43,1.45.53.68.24,1.52-3.12,3,1.17L37.39,43l-.18.71,1.51.55.68.25L41,41.14l2.92,1.13-.79,3.17-.18.71,1.56.57.69.26,1.72-3.55,2.81,1.09-.84,3.4-.18.71,1.62.59.69.25,1.82-3.75,2.71,1.05-1.08,4.34,1.69.61.68.25,1.92-4,2.61,1-1.14,4.56,1.74.64.69.25,2-4.17,2.5,1L66,56.07l1.8.65.69.24,2.12-4.37,2.4.93-1.25,5,1.86.68.69.24,2.22-4.58,2.3.89L77.53,61l1.92.71.68.25,2.33-4.8,2.19.85L83.29,63.5l2,.72.68.25,2.43-5L95.05,62l.81.16a2.18,2.18,0,0,0,.52-.11v0l-.16.45,1.62,2.67.39.61,1.21,2,2.17.78L113,72.67l.38.14-1.79,4.25,8.71,3.86L130,85.24l5.68,6.66c-3.41,13.74-12.83,53.08-16.6,82.18-1.74,13.34-2.56,31.6-2.88,51.35h49.53c0-.17,0-.34,0-.51A322.56,322.56,0,0,0,163.06,190.68ZM115.86,65.92l-12.08-4.29-.39-.62.74-2,.52-.13,11.94,4.26.37.14Z"/><rect class="cls-2" width="225" height="225"/></g></g></svg>