<svg xmlns="http://www.w3.org/2000/svg" viewBox="0 0 225 225"><defs><style>.cls-1{fill:#fff;}.cls-2{fill:none;}</style></defs><g id="レイヤー_2" data-name="レイヤー 2"><g id="レイヤー_1-2" data-name="レイヤー 1"><path class="cls-1" d="M118.81,18.34l-1.8.09c-1.21.11-2.53.27-4,.46a9.39,9.39,0,0,0-6.15,3.59,9.21,9.21,0,0,0-1.67,4.61L83,28.55l-1.2.09-.69.05-1.4,1.15-3.24,2.24-2.07,1.47-1.06.75,8.2,68.94.16,1.23,3.46,1.4,0,0,3.67,1.42,1,.49.65.29,1.84-.39,21.36-3.59.91-.13c4.86,46.73,4.12,73.05-1.27,99.75-.13.74-.3,1.48-.48,2.29-.3,1.38-.53,2.46-.7,3.27l-10.55,12-.35.39-.29.43-.73,1.06-.41,1.28-.19.59h49.17q.57-9,1.16-17.43.56-7.92.9-15.74c.16-3.58.28-7.15.38-10.71C153.43,103.45,142.46,56,137.19,33.2A18.9,18.9,0,0,0,118.81,18.34ZM80.45,39.39l-.25-2L83.52,35l22.14-1.45c.18,1.27.35,2.48.53,3.73L88.9,40.15l-4.69.77-.77-.34-2.39-.94ZM81.39,47l-.26-2.14.52-.34,2-1.45.68-.51,5.13-.34L106.73,41c.17,1.22.36,2.5.53,3.71L90.18,47.58l-.42.08-4.7.77-.69-.25h-.08L82,47.24Zm.85,7.59L82,52.44l.59-.42,2.13-1.46.61-.42,4.44-.35,18-1.22c.18,1.28.33,2.46.51,3.72L91.37,55.17l-.68.09L86,56l-.77-.34-2.39-.85ZM82.92,60l.6-.43,2-1.45.67-.51,5.13-.34h.08l17.47-1.16c.17,1.23.35,2.49.51,3.69L92,62.77l-.43.08-4.7.77-.69-.26h-.08l-2.3-1-.68-.26ZM84,69.68l-.25-2.13.51-.43,2-1.36.68-.52,5-.34h.16l17.65-1.23c.17,1.28.32,2.43.48,3.68L93.16,70.28l-.68.09-4.69.76L87,70.79l-2.39-.85Zm.86,7.59-.26-2.13.6-.43,2.14-1.45.59-.42,4.44-.34h.34l18.12-1.25c.15,1.22.32,2.47.47,3.66l-17.57,3-.42.09-4.7.76L88,78.47h-.09l-2.3-.94Zm.68,5.47.59-.43,2-1.45.68-.52L94,80l17.81-1.16c.17,1.27.3,2.43.45,3.68L95,85.47l-.69.08-4.69.77L88.81,86,86.42,85l-.6-.26Zm1.11,9.64-.26-2.13.52-.35,2.13-1.45.69-.51,5-.34h.08l17.87-1.25c.15,1.22.3,2.47.44,3.66L95.56,93l-.43.09-4.7.77-.67-.26h-.1l-2.38-.94Zm4.69,9.05-3.75-1.54-.25-2,.5-.34L90,96l.6-.42,4.52-.34h.25L113.64,94c.14,1.26.26,2.43.4,3.66Z"/><rect class="cls-2" width="225" height="225"/></g></g></svg>