<svg xmlns="http://www.w3.org/2000/svg" viewBox="0 0 225 225"><defs><style>.cls-1{fill:#228a98;}.cls-2{fill:#fff;}.cls-3{fill:none;}</style></defs><g id="レイヤー_2" data-name="レイヤー 2"><g id="レイヤー_1-2" data-name="レイヤー 1"><path class="cls-1" d="M185.66,73.67a1.72,1.72,0,0,0-2.48.62c-5.42,9.42-38.2,8.55-50.38,7.42h-.23l-.23,0c3.61-2.25,7.49-4.09,12.19-4.09,1.75,0,3.76,0,5.91,0,4.93,0,14,.13,20.9-.3C164,51.14,141.67,32.06,115.28,32.06H97.13c-26.4,0-48.72,19.09-56.07,45.33a207,207,0,0,0,21.21.32c2.18,0,4.06-.08,5.61-.08,4.66,0,8.73,2.69,13,5.54a62.56,62.56,0,0,0,10.61,6,59.57,59.57,0,0,0-6.87,3.31,2.07,2.07,0,0,0-.76,2.66,1.78,1.78,0,0,0,1.59,1.06,1.58,1.58,0,0,0,.83-.23,61.68,61.68,0,0,1,11.32-4.89A39.27,39.27,0,0,0,106,92a34.33,34.33,0,0,0,19.72-5.88c2.44-.19,4.76-.32,6.93-.43a198.45,198.45,0,0,0,23.43.52c16.7-.72,26.85-4,30.17-9.77A2.09,2.09,0,0,0,185.66,73.67Z"/><path class="cls-1" d="M173.4,87.75c-5.53.44-13,.5-23.05.41-2.12,0-4.09,0-5.82,0-3.47,0-6.43,2-10.52,4.73-6.37,4.27-14.31,9.59-28,9.59-14.46,0-23.46-6-30-10.29-3.27-2.16-6.09-4-8.07-4-1.46,0-3.3,0-5.43.08A197.81,197.81,0,0,1,39,87.73a71.44,71.44,0,0,0-.51,8.46v55.33c0,23.23,17.22,42.07,38.47,42.07h58.47c21.25,0,38.47-18.84,38.47-42.07V96.19A69.05,69.05,0,0,0,173.4,87.75Zm-34,60a41,41,0,0,1-14,26.87,33.7,33.7,0,0,1-21.9,8.25,33,33,0,0,1-4.63-.33C74.42,179.13,57,154.19,60.13,127c1.46-12.78,7.53-22.76,18.05-29.65a1.71,1.71,0,0,1,2.46.68,2.07,2.07,0,0,1-.61,2.7c-9.65,6.32-15,15.08-16.33,26.76-2.86,25,13.14,48,35.68,51.19a30.11,30.11,0,0,0,23.87-7.13,37,37,0,0,0,12.57-24.25c1.79-15.64-8.2-30-22.27-32a18.71,18.71,0,0,0-14.8,4.42A23,23,0,0,0,91,134.8c-1.1,9.62,5,18.45,13.7,19.67a11.34,11.34,0,0,0,9-2.69,13.93,13.93,0,0,0,4.74-9.15c.66-5.78-3-11.07-8.2-11.8a6.62,6.62,0,0,0-5.27,1.57,8.22,8.22,0,0,0-2.8,5.39c-.38,3.31,1.73,6.34,4.69,6.76a2,2,0,0,1,1.56,2.21,1.85,1.85,0,0,1-2,1.7c-4.92-.7-8.42-5.7-7.8-11.16a12.27,12.27,0,0,1,4.16-8,10,10,0,0,1,7.94-2.37c7.14,1,12.22,8.27,11.32,16.19a18,18,0,0,1-6.12,11.78,14.64,14.64,0,0,1-11.65,3.48C93.57,156.88,86,146.08,87.38,134.31a27,27,0,0,1,9.17-17.67A22,22,0,0,1,114,111.43C130,113.69,141.43,130,139.4,147.79Z"/><path class="cls-2" d="M114,111.43a22,22,0,0,0-17.46,5.21,27,27,0,0,0-9.17,17.67c-1.35,11.77,6.19,22.57,16.81,24.06a14.64,14.64,0,0,0,11.65-3.48A18,18,0,0,0,122,143.11c.9-7.92-4.18-15.18-11.32-16.19a10,10,0,0,0-7.94,2.37,12.27,12.27,0,0,0-4.16,8c-.62,5.46,2.88,10.46,7.8,11.16a1.85,1.85,0,0,0,2-1.7,2,2,0,0,0-1.56-2.21c-3-.42-5.07-3.45-4.69-6.76a8.22,8.22,0,0,1,2.8-5.39,6.62,6.62,0,0,1,5.27-1.57c5.18.73,8.86,6,8.2,11.8a13.93,13.93,0,0,1-4.74,9.15,11.34,11.34,0,0,1-9,2.69C96,153.25,89.85,144.42,91,134.8a23,23,0,0,1,7.8-15.05,18.71,18.71,0,0,1,14.8-4.42c14.07,2,24.06,16.33,22.27,32a37,37,0,0,1-12.57,24.25,30.11,30.11,0,0,1-23.87,7.13c-22.54-3.18-38.54-26.14-35.68-51.19C65,115.81,70.38,107.05,80,100.73a2.07,2.07,0,0,0,.61-2.7,1.71,1.71,0,0,0-2.46-.68C67.66,104.24,61.59,114.22,60.13,127,57,154.19,74.42,179.13,98.92,182.58a33,33,0,0,0,4.63.33,33.7,33.7,0,0,0,21.9-8.25,41,41,0,0,0,14-26.87C141.43,130,130,113.69,114,111.43Z"/><rect class="cls-3" width="225" height="225"/></g></g></svg>