<svg xmlns="http://www.w3.org/2000/svg" viewBox="0 0 225 225"><defs><style>.cls-1{fill:#228a98;}.cls-2{fill:none;}</style></defs><g id="レイヤー_2" data-name="レイヤー 2"><g id="レイヤー_1-2" data-name="レイヤー 1"><path class="cls-1" d="M128.8,78.23l-1.56-39.74a5.49,5.49,0,0,0-5.48-5.27H103.24a5.48,5.48,0,0,0-5.48,5.27L96.25,76.91l0,1.27h0v0Z"/><path class="cls-1" d="M128.27,83.86H96.71a36.48,36.48,0,0,0-36.37,36.37v61.51a11.89,11.89,0,0,0,11.85,11.85h80.6a11.9,11.9,0,0,0,11.87-11.85V120.23A36.49,36.49,0,0,0,128.27,83.86Zm13.88,87.22H82.85V154.6h59.3v16.48Zm0-23.83v.12H82.85V120.23a13.88,13.88,0,0,1,13.86-13.86h31.56a13.89,13.89,0,0,1,13.88,13.86v27Z"/><rect class="cls-2" width="225" height="225"/></g></g></svg>